<svg width="1024" height="1024" viewBox="0 0 1024 1024" fill="none" xmlns="http://www.w3.org/2000/svg">
<rect width="1024" height="1024" rx="250" fill="#222222"/>
<path d="M160.5 711.5C145.833 711.5 134.333 707.5 126 699.5C118 691.167 114 679.333 114 664V402C114 386.667 118 375 126 367C134.333 358.667 146.333 354.5 162 354.5H328.5C340.5 354.5 349.5 357.5 355.5 363.5C361.5 369.5 364.5 378.167 364.5 389.5C364.5 401.167 361.5 410.167 355.5 416.5C349.5 422.5 340.5 425.5 328.5 425.5H206V496.5H317.5C329.167 496.5 338 499.5 344 505.5C350.333 511.5 353.5 520.167 353.5 531.5C353.5 543.167 350.333 552 344 558C338 564 329.167 567 317.5 567H206V664C206 695.667 190.833 711.5 160.5 711.5ZM546.41 711.5C534.077 711.5 524.077 708.667 516.41 703C508.744 697 502.744 687.833 498.41 675.5L400.91 404C395.577 389 396.41 376.333 403.41 366C410.743 355.333 423.577 350 441.91 350C454.243 350 463.91 353 470.91 359C477.91 364.667 483.41 373.667 487.41 386L561.91 609.5H538.41L618.41 386C623.077 373.667 628.91 364.667 635.91 359C642.91 353 651.91 350 662.91 350C673.91 350 682.744 353 689.41 359C696.077 364.667 701.577 373.833 705.91 386.5L780.91 609.5H760.91L837.41 386C841.41 373.667 846.744 364.667 853.41 359C860.41 353 870.077 350 882.41 350C897.743 350 908.91 355.333 915.91 366C923.244 376.333 924.077 389 918.41 404L819.91 676C815.577 688 809.577 697 801.91 703C794.577 708.667 784.744 711.5 772.41 711.5C759.744 711.5 749.577 708.667 741.91 703C734.577 697 728.743 687.833 724.41 675.5L653.91 477.5H666.41L594.41 676C589.743 688 583.744 697 576.41 703C569.077 708.667 559.077 711.5 546.41 711.5Z" fill="white"/>
</svg>
